<?xml version="1.0" encoding="UTF-8"?><svg id="Layer_2" xmlns="http://www.w3.org/2000/svg" viewBox="0 0 629.74 629.74"><defs><style>.cls-1{fill:#fff;}</style></defs><g id="flateado"><g><path class="cls-1" d="M314.87,627.74c-83.57,0-162.14-32.54-221.23-91.64S2,398.44,2,314.87,34.54,152.73,93.64,93.64,231.3,2,314.87,2s162.14,32.54,221.23,91.64,91.64,137.66,91.64,221.23-32.54,162.14-91.64,221.23-137.66,91.64-221.23,91.64Z"/><path d="M314.87,4c41.97,0,82.68,8.22,121,24.43,37.02,15.66,70.26,38.07,98.82,66.62s50.97,61.8,66.62,98.82c16.21,38.32,24.43,79.03,24.43,121s-8.22,82.68-24.43,121c-15.66,37.02-38.07,70.26-66.62,98.82s-61.8,50.97-98.82,66.62c-38.32,16.21-79.03,24.43-121,24.43s-82.68-8.22-121-24.43c-37.02-15.66-70.26-38.07-98.82-66.62s-50.97-61.8-66.62-98.82c-16.21-38.32-24.43-79.03-24.43-121s8.22-82.68,24.43-121c15.66-37.02,38.07-70.26,66.62-98.82s61.8-50.97,98.82-66.62c38.32-16.21,79.03-24.43,121-24.43m0-4C140.97,0,0,140.97,0,314.87s140.97,314.87,314.87,314.87,314.87-140.97,314.87-314.87S488.77,0,314.87,0h0Z"/></g><rect x="54.77" y="109.76" width="520.21" height="411.83" rx="205.92" ry="205.92"/><path class="cls-1" d="M423.25,207.3c-12.68,0-24.84,2.18-36.15,6.18-29.8-36.82-75.36-60.37-126.42-60.37-89.78,0-162.57,72.78-162.57,162.57s72.78,162.57,162.57,162.57c51.06,0,96.62-23.55,126.42-60.37,11.31,4,23.47,6.18,36.15,6.18,59.85,0,108.38-48.52,108.38-108.38s-48.52-108.38-108.38-108.38Z"/><path d="M423.25,250.65c-20.42,0-38.63,9.42-50.55,24.14-16.69-45.7-60.54-78.33-112.02-78.33-65.84,0-119.21,53.37-119.21,119.21s53.37,119.21,119.21,119.21c51.48,0,95.33-32.63,112.02-78.33,11.92,14.72,30.13,24.14,50.55,24.14,35.91,0,65.03-29.11,65.03-65.03s-29.11-65.03-65.03-65.03Z"/></g></svg>